<svg width="53" height="47" viewBox="0 0 53 47" fill="none" xmlns="http://www.w3.org/2000/svg">
<path d="M48.5944 27.6601L52.9441 8.56639C53.2582 7.18779 52.2079 5.875 50.7907 5.875H14.6493L13.8059 1.76158C13.5958 0.736303 12.6915 0 11.6424 0H2.20833C0.988689 0 0 0.986357 0 2.20312V3.67188C0 4.88864 0.988689 5.875 2.20833 5.875H8.63854L15.1023 37.4013C13.5559 38.2885 12.5139 39.952 12.5139 41.8594C12.5139 44.6985 14.8209 47 17.6667 47C20.5125 47 22.8194 44.6985 22.8194 41.8594C22.8194 40.4206 22.2262 39.1206 21.2714 38.1875H40.5618C39.6071 39.1206 39.0139 40.4206 39.0139 41.8594C39.0139 44.6985 41.3209 47 44.1667 47C47.0125 47 49.3194 44.6985 49.3194 41.8594C49.3194 39.8241 48.1336 38.0652 46.4137 37.2324L46.9214 35.0039C47.2354 33.6253 46.1851 32.3125 44.768 32.3125H20.0698L19.4676 29.375H46.441C47.4721 29.375 48.3659 28.6632 48.5944 27.6601Z" fill="#262626"/>
</svg>
