<svg width="283" height="283" viewBox="0 0 283 283" fill="none" xmlns="http://www.w3.org/2000/svg">
<path d="M141.5 0.546875C63.6348 0.546875 0.546875 63.6348 0.546875 141.5C0.546875 219.365 63.6348 282.453 141.5 282.453C219.365 282.453 282.453 219.365 282.453 141.5C282.453 63.6348 219.365 0.546875 141.5 0.546875ZM141.5 255.172C78.6963 255.172 27.8281 204.304 27.8281 141.5C27.8281 78.6963 78.6963 27.8281 141.5 27.8281C204.304 27.8281 255.172 78.6963 255.172 141.5C255.172 204.304 204.304 255.172 141.5 255.172ZM176.625 195.835L128.371 160.767C126.609 159.46 125.586 157.414 125.586 155.254V61.9297C125.586 58.1785 128.655 55.1094 132.406 55.1094H150.594C154.345 55.1094 157.414 58.1785 157.414 61.9297V142.466L195.38 170.088C198.45 172.305 199.075 176.568 196.858 179.637L186.173 194.357C183.956 197.37 179.694 198.052 176.625 195.835Z" fill="#262626"/>
</svg>
