<svg width="55" height="43" viewBox="0 0 55 43" fill="none" xmlns="http://www.w3.org/2000/svg">
<path d="M50.4071 0.0625H4.59288C2.05295 0.0625 0 2.12012 0 4.65625V38.3438C0 40.8799 2.05295 42.9375 4.59288 42.9375H50.4071C52.9471 42.9375 55 40.8799 55 38.3438V4.65625C55 2.12012 52.9471 0.0625 50.4071 0.0625ZM5.1658 4.65625H49.8342C50.1493 4.65625 50.4071 4.91465 50.4071 5.23047V9.25H4.59288V5.23047C4.59288 4.91465 4.85069 4.65625 5.1658 4.65625ZM49.8342 38.3438H5.1658C4.85069 38.3438 4.59288 38.0854 4.59288 37.7695V21.5H50.4071V37.7695C50.4071 38.0854 50.1493 38.3438 49.8342 38.3438ZM18.3333 28.7734V32.6016C18.3333 33.2332 17.8177 33.75 17.1875 33.75H10.3125C9.68229 33.75 9.16667 33.2332 9.16667 32.6016V28.7734C9.16667 28.1418 9.68229 27.625 10.3125 27.625H17.1875C17.8177 27.625 18.3333 28.1418 18.3333 28.7734ZM36.6667 28.7734V32.6016C36.6667 33.2332 36.151 33.75 35.5208 33.75H22.5347C21.9045 33.75 21.3889 33.2332 21.3889 32.6016V28.7734C21.3889 28.1418 21.9045 27.625 22.5347 27.625H35.5208C36.151 27.625 36.6667 28.1418 36.6667 28.7734Z" fill="#262626"/>
</svg>
